<svg width="18" height="18" viewBox="0 0 18 18" fill="none" xmlns="http://www.w3.org/2000/svg">
<path d="M16.1042 2.19238V5.74438H12.5522" stroke="white" stroke-width="1.5" stroke-linecap="round" stroke-linejoin="round"/>
<path d="M1.89575 15.8086L1.89575 12.2566L5.44775 12.2566" stroke="white" stroke-width="1.5" stroke-linecap="round" stroke-linejoin="round"/>
<path d="M1.6001 9.00059C1.6001 7.43786 2.09482 5.91525 3.01337 4.65097C3.93192 3.3867 5.22713 2.44568 6.71337 1.96277C8.19962 1.47986 9.80059 1.47986 11.2868 1.96277C12.7731 2.44568 14.0683 3.3867 14.9868 4.65098" stroke="white" stroke-width="1.5" stroke-linecap="round"/>
<path d="M16.3999 9.00098C16.3999 10.5637 15.9052 12.0863 14.9866 13.3506C14.0681 14.6149 12.7729 15.5559 11.2866 16.0388C9.80039 16.5217 8.19942 16.5217 6.71318 16.0388C5.22694 15.5559 3.93173 14.6149 3.01318 13.3506" stroke="white" stroke-width="1.5" stroke-linecap="round"/>
<rect x="2.00134" y="12.4004" width="1" height="1" fill="white"/>
<rect x="15.0013" y="4.50098" width="1" height="1" fill="white"/>
</svg>
