<svg width="18" height="20" viewBox="0 0 18 20" fill="none" xmlns="http://www.w3.org/2000/svg">
<path d="M11.5632 15.8298C11.5626 15.3855 11.6816 14.9493 11.9075 14.5666L6.2295 11.2597C6.00986 11.6369 5.69528 11.9497 5.31682 12.1672C4.93836 12.3848 4.50947 12.4993 4.07296 12.4992C3.41057 12.4989 2.77505 12.2357 2.30667 11.7673C1.83829 11.2989 1.57534 10.6637 1.57507 10.0013C1.57534 9.33897 1.83875 8.70392 2.30715 8.2357C2.77556 7.76748 3.41066 7.50435 4.07296 7.50435C4.50962 7.50415 4.93867 7.61851 5.3173 7.83601C5.69593 8.05351 6.01067 8.36655 6.23047 8.74385L11.9036 5.43205C11.6803 5.05033 11.5627 4.6159 11.5632 4.17367C11.5634 3.84552 11.6283 3.52054 11.754 3.21741C11.8797 2.91429 12.0637 2.63884 12.2958 2.40689C12.5279 2.17495 12.8036 1.99104 13.1068 1.86558C13.41 1.74012 13.7349 1.67565 14.0631 1.67578C14.391 1.67578 14.7158 1.74028 15.0188 1.86582C15.3218 1.99136 15.597 2.17542 15.8289 2.40738C16.0607 2.63934 16.2448 2.91485 16.3702 3.2179C16.4956 3.52094 16.5601 3.84569 16.56 4.17367C16.5601 4.5016 16.4956 4.82621 16.3702 5.1292C16.2447 5.43219 16.0607 5.7076 15.8289 5.93948C15.597 6.17136 15.3218 6.35511 15.0188 6.48055C14.7158 6.60598 14.391 6.67048 14.0631 6.67035C13.6262 6.67059 13.1972 6.55647 12.8182 6.33917C12.4393 6.12186 12.124 5.80919 11.9036 5.43205L6.23047 8.74385C6.45305 9.12546 6.57038 9.55949 6.56988 10.0013C6.57061 10.4432 6.45292 10.8774 6.2295 11.2587L11.9075 14.5656C12.1275 14.1892 12.4424 13.877 12.8206 13.6602C13.1989 13.4434 13.6271 13.3296 14.0631 13.33C14.3911 13.33 14.7163 13.3947 15.0193 13.5203C15.3224 13.6459 15.5975 13.83 15.8293 14.0621C16.0612 14.2942 16.2453 14.5697 16.3707 14.8728C16.496 15.176 16.5602 15.5008 16.56 15.8289C16.56 16.4911 16.2971 17.1262 15.8289 17.5944C15.3606 18.0627 14.7253 18.3258 14.0631 18.3258C13.4007 18.326 12.7655 18.0632 12.2968 17.5952C11.828 17.1271 11.564 16.4922 11.5632 15.8298V15.8298Z" stroke="white" stroke-width="1.5" stroke-linecap="round"/>
</svg>
