<svg width="24" height="24" viewBox="0 0 24 24" fill="none" xmlns="http://www.w3.org/2000/svg">
<path d="M20.704 12C22.5243 12 24.0439 10.4973 23.5502 8.74525C23.1418 7.29623 22.4618 5.92742 21.536 4.71549C19.9379 2.62335 17.696 1.11485 15.156 0.422448C12.616 -0.269954 9.91871 -0.107825 7.47991 0.883851C5.0411 1.87553 2.9961 3.64171 1.66005 5.91022C0.323994 8.17873 -0.228959 10.8237 0.0864026 13.4374C0.401764 16.0512 1.56794 18.4887 3.40521 20.3743C5.24248 22.26 7.64887 23.4891 10.2536 23.8722C11.7624 24.0942 13.2893 24.0251 14.7545 23.6796C16.5262 23.2618 17.1035 21.2041 16.2208 19.6122C15.3381 18.0202 13.2536 17.5668 11.4429 17.3793C11.3662 17.3713 11.2895 17.3617 11.2129 17.3505C10.0391 17.1778 8.95459 16.6239 8.12658 15.7741C7.29858 14.9243 6.77302 13.8257 6.6309 12.6478C6.48877 11.4699 6.73797 10.2779 7.34009 9.25552C7.94221 8.23317 8.86383 7.4372 9.96293 6.99028C11.062 6.54336 12.2776 6.4703 13.4223 6.78234C14.567 7.09439 15.5774 7.77423 16.2976 8.71709C16.3446 8.7786 16.3902 8.84101 16.4343 8.90427C17.4764 10.3968 18.8837 12 20.704 12Z" fill="#FCB630"/>
</svg>
